<svg width="220" height="28" viewBox="0 0 220 28" fill="none" xmlns="http://www.w3.org/2000/svg">
<rect width="156" height="24" fill="white"/>
<path d="M2.43359 27V5.37109H6.20703L12.7422 17.2656L15.1484 21.6406H15.2852C15.0117 19.7266 14.875 17.6484 14.875 15.4062V5.37109H18.4844V27H14.7109L8.17578 15.3242L5.76953 10.8125H5.63281C5.90625 12.9453 6.04297 15.0234 6.04297 17.0469V27H2.43359ZM27.3438 18.7422H33.7969L31.9648 13.1367C31.8372 12.7357 31.6914 12.2891 31.5273 11.7969C31.3815 11.3047 31.2174 10.7669 31.0352 10.1836C30.8711 9.58203 30.7435 9.13542 30.6523 8.84375H30.4883C30.4336 9.02604 29.9961 10.457 29.1758 13.1367L27.3438 18.7422ZM20.7812 27L28.6016 5.37109H32.5664L40.3594 27H36.5312L34.7539 21.6406H26.3867L24.6094 27H20.7812ZM38.9648 5.37109H42.875L46.5117 17.8672C47.3503 21.112 47.8151 22.8984 47.9062 23.2266L48.0156 23.2539C48.4531 21.5768 48.918 19.7812 49.4102 17.8672L53.0469 5.37109H56.957L49.9844 27H45.9375L38.9648 5.37109ZM59.3906 27V5.37109H63V27H59.3906ZM67.8125 27V5.37109H82.0039V8.46094H71.4219V14.3125H80.9648V17.3477H71.4219V23.9375H82.2773V27H67.8125ZM85.5586 27V5.37109H89.332L95.8672 17.2656L98.2734 21.6406H98.4102C98.1367 19.7266 98 17.6484 98 15.4062V5.37109H101.609V27H97.8359L91.3008 15.3242L88.8945 10.8125H88.7578C89.0312 12.9453 89.168 15.0234 89.168 17.0469V27H85.5586Z" fill="#2D3C73"/>
<path d="M123.249 27V5.37109H126.831V14.3672H135.581V5.37109H139.163V27H135.581V17.4023H126.831V27H123.249ZM142.718 16.1992C142.718 12.8086 143.566 10.0742 145.261 7.99609C146.956 5.91797 149.208 4.87891 152.015 4.87891C154.822 4.87891 157.064 5.91797 158.741 7.99609C160.437 10.056 161.284 12.7904 161.284 16.1992C161.284 19.6081 160.437 22.3424 158.741 24.4023C157.046 26.4622 154.804 27.4922 152.015 27.4922C149.208 27.4922 146.956 26.4622 145.261 24.4023C143.566 22.3424 142.718 19.6081 142.718 16.1992ZM146.437 16.1992C146.437 18.7331 146.929 20.7383 147.913 22.2148C148.916 23.6732 150.283 24.4023 152.015 24.4023C153.728 24.4023 155.077 23.6732 156.062 22.2148C157.064 20.7565 157.566 18.7513 157.566 16.1992C157.566 13.6836 157.073 11.6875 156.089 10.2109C155.123 8.71615 153.765 7.96875 152.015 7.96875C150.283 7.96875 148.916 8.71615 147.913 10.2109C146.929 11.6875 146.437 13.6836 146.437 16.1992ZM164.757 18.9062V5.37109H168.394V18.9062C168.394 20.7656 168.777 22.151 169.542 23.0625C170.308 23.9557 171.374 24.4023 172.741 24.4023C174.145 24.4023 175.23 23.9375 175.995 23.0078C176.761 22.0599 177.144 20.6927 177.144 18.9062V5.37109H180.753V18.9062C180.753 21.6589 180.079 23.7826 178.73 25.2773C177.381 26.7539 175.385 27.4922 172.741 27.4922C170.189 27.4922 168.221 26.7721 166.835 25.332C165.45 23.8919 164.757 21.75 164.757 18.9062ZM183.788 22.3789L186.96 21.3125C187.471 22.224 188.209 22.9714 189.175 23.5547C190.141 24.1198 191.208 24.4023 192.374 24.4023C193.577 24.4023 194.543 24.1107 195.273 23.5273C196.002 22.944 196.366 22.1875 196.366 21.2578C196.366 20.2734 195.974 19.5078 195.191 18.9609C194.425 18.4141 193.295 17.8854 191.8 17.375C189.667 16.6641 188.227 16.099 187.48 15.6797C185.529 14.5677 184.554 12.9544 184.554 10.8398C184.554 9.05339 185.256 7.61328 186.659 6.51953C188.063 5.42578 189.895 4.87891 192.155 4.87891C194.015 4.87891 195.601 5.31641 196.913 6.19141C198.244 7.04818 199.21 8.15104 199.812 9.5L196.777 10.5117C195.61 8.81641 194.06 7.96875 192.128 7.96875C190.943 7.96875 190.004 8.23307 189.312 8.76172C188.619 9.29036 188.273 9.98307 188.273 10.8398C188.273 11.0951 188.3 11.3411 188.355 11.5781C188.409 11.7969 188.519 12.0065 188.683 12.207C188.847 12.4076 188.993 12.5807 189.12 12.7266C189.248 12.8724 189.458 13.0273 189.749 13.1914C190.041 13.3555 190.269 13.4831 190.433 13.5742C190.615 13.6654 190.907 13.7839 191.308 13.9297C191.709 14.0755 191.991 14.1758 192.155 14.2305C192.338 14.2852 192.666 14.3945 193.14 14.5586C193.614 14.7044 193.933 14.8047 194.097 14.8594C194.935 15.1328 195.674 15.4245 196.312 15.7344C196.95 16.0443 197.57 16.4453 198.171 16.9375C198.791 17.4115 199.265 18.0039 199.593 18.7148C199.921 19.4258 200.085 20.2279 200.085 21.1211C200.085 23.1445 199.356 24.7122 197.898 25.8242C196.458 26.9362 194.589 27.4922 192.292 27.4922C190.305 27.4922 188.564 27.0365 187.07 26.125C185.575 25.1953 184.481 23.9466 183.788 22.3789ZM203.366 27V5.37109H217.558V8.46094H206.976V14.3125H216.519V17.3477H206.976V23.9375H217.831V27H203.366Z" fill="white"/>
<path d="M2.43359 27H2.03359V27.4H2.43359V27ZM2.43359 5.37109V4.97109H2.03359V5.37109H2.43359ZM6.20703 5.37109L6.5576 5.17848L6.44366 4.97109H6.20703V5.37109ZM12.7422 17.2656L12.3916 17.4582L12.3917 17.4584L12.7422 17.2656ZM15.1484 21.6406L14.798 21.8334L14.9119 22.0406H15.1484V21.6406ZM15.2852 21.6406V22.0406H15.7464L15.6811 21.5841L15.2852 21.6406ZM14.875 5.37109V4.97109H14.475V5.37109H14.875ZM18.4844 5.37109H18.8844V4.97109H18.4844V5.37109ZM18.4844 27V27.4H18.8844V27H18.4844ZM14.7109 27L14.3619 27.1954L14.4764 27.4H14.7109V27ZM8.17578 15.3242L7.82277 15.5125L7.82674 15.5196L8.17578 15.3242ZM5.76953 10.8125L6.12247 10.6243L6.00953 10.4125H5.76953V10.8125ZM5.63281 10.8125V10.4125H5.17826L5.23606 10.8634L5.63281 10.8125ZM6.04297 27V27.4H6.44297V27H6.04297ZM2.83359 27V5.37109H2.03359V27H2.83359ZM2.43359 5.77109H6.20703V4.97109H2.43359V5.77109ZM5.85646 5.56371L12.3916 17.4582L13.0928 17.073L6.5576 5.17848L5.85646 5.56371ZM12.3917 17.4584L14.798 21.8334L15.4989 21.4479L13.0927 17.0729L12.3917 17.4584ZM15.1484 22.0406H15.2852V21.2406H15.1484V22.0406ZM15.6811 21.5841C15.4108 19.6914 15.275 17.6324 15.275 15.4062H14.475C14.475 17.6645 14.6127 19.7617 14.8892 21.6972L15.6811 21.5841ZM15.275 15.4062V5.37109H14.475V15.4062H15.275ZM14.875 5.77109H18.4844V4.97109H14.875V5.77109ZM18.0844 5.37109V27H18.8844V5.37109H18.0844ZM18.4844 26.6H14.7109V27.4H18.4844V26.6ZM15.06 26.8046L8.52483 15.1289L7.82674 15.5196L14.3619 27.1954L15.06 26.8046ZM8.52872 15.136L6.12247 10.6243L5.41659 11.0007L7.82284 15.5125L8.52872 15.136ZM5.76953 10.4125H5.63281V11.2125H5.76953V10.4125ZM5.23606 10.8634C5.50747 12.9804 5.64297 15.0415 5.64297 17.0469H6.44297C6.44297 15.0054 6.30503 12.9103 6.02957 10.7616L5.23606 10.8634ZM5.64297 17.0469V27H6.44297V17.0469H5.64297ZM6.04297 26.6H2.43359V27.4H6.04297V26.6ZM27.3438 18.7422L26.9635 18.6179L26.7922 19.1422H27.3438V18.7422ZM33.7969 18.7422V19.1422H34.3484L34.1771 18.6179L33.7969 18.7422ZM31.9648 13.1367L31.5837 13.258L31.5846 13.261L31.9648 13.1367ZM31.5273 11.7969L31.1436 11.9106L31.1479 11.9234L31.5273 11.7969ZM31.0352 10.1836L30.6493 10.2888L30.6512 10.2959L30.6534 10.3029L31.0352 10.1836ZM30.6523 8.84375L31.0341 8.72444L30.9464 8.44375H30.6523V8.84375ZM30.4883 8.84375V8.44375H30.1907L30.1052 8.72881L30.4883 8.84375ZM29.1758 13.1367L29.5561 13.261L29.5583 13.2538L29.1758 13.1367ZM20.7812 27L20.4051 26.864L20.2113 27.4H20.7812V27ZM28.6016 5.37109V4.97109H28.3208L28.2254 5.23508L28.6016 5.37109ZM32.5664 5.37109L32.9427 5.2355L32.8475 4.97109H32.5664V5.37109ZM40.3594 27V27.4H40.9287L40.7357 26.8644L40.3594 27ZM36.5312 27L36.1516 27.1259L36.2425 27.4H36.5312V27ZM34.7539 21.6406L35.1336 21.5147L35.0427 21.2406H34.7539V21.6406ZM26.3867 21.6406V21.2406H26.0979L26.0071 21.5147L26.3867 21.6406ZM24.6094 27V27.4H24.8981L24.989 27.1259L24.6094 27ZM27.3438 19.1422H33.7969V18.3422H27.3438V19.1422ZM34.1771 18.6179L32.3451 13.0125L31.5846 13.261L33.4167 18.8665L34.1771 18.6179ZM32.346 13.0154C32.2177 12.6123 32.0713 12.1639 31.9068 11.6704L31.1479 11.9234C31.3115 12.4142 31.4567 12.859 31.5837 13.258L32.346 13.0154ZM31.9109 11.6832C31.7644 11.1888 31.5997 10.6492 31.4169 10.0643L30.6534 10.3029C30.8352 10.8847 30.9986 11.4205 31.1438 11.9105L31.9109 11.6832ZM31.4211 10.0783C31.2567 9.47585 31.1276 9.02341 31.0341 8.72444L30.2706 8.96306C30.3594 9.24742 30.4854 9.68821 30.6493 10.2888L31.4211 10.0783ZM30.6523 8.44375H30.4883V9.24375H30.6523V8.44375ZM30.1052 8.72881C30.0509 8.90968 29.6139 10.3389 28.7933 13.0196L29.5583 13.2538C30.3782 10.5752 30.8163 9.1424 30.8714 8.95869L30.1052 8.72881ZM28.7956 13.0125L26.9635 18.6179L27.724 18.8665L29.556 13.261L28.7956 13.0125ZM21.1574 27.136L28.9777 5.5071L28.2254 5.23508L20.4051 26.864L21.1574 27.136ZM28.6016 5.77109H32.5664V4.97109H28.6016V5.77109ZM32.1901 5.50668L39.9831 27.1356L40.7357 26.8644L32.9427 5.2355L32.1901 5.50668ZM40.3594 26.6H36.5312V27.4H40.3594V26.6ZM36.9109 26.8741L35.1336 21.5147L34.3742 21.7665L36.1516 27.1259L36.9109 26.8741ZM34.7539 21.2406H26.3867V22.0406H34.7539V21.2406ZM26.0071 21.5147L24.2297 26.8741L24.989 27.1259L26.7664 21.7665L26.0071 21.5147ZM24.6094 26.6H20.7812V27.4H24.6094V26.6ZM38.9648 5.37109V4.97109H38.4156L38.5841 5.49382L38.9648 5.37109ZM42.875 5.37109L43.2591 5.25932L43.1752 4.97109H42.875V5.37109ZM46.5117 17.8672L46.8992 17.7671L46.8958 17.7554L46.5117 17.8672ZM47.9062 23.2266L47.5208 23.3336L47.5832 23.5581L47.8092 23.6146L47.9062 23.2266ZM48.0156 23.2539L47.9186 23.642L48.3027 23.738L48.4027 23.3549L48.0156 23.2539ZM49.4102 17.8672L49.0259 17.7554L49.0228 17.7676L49.4102 17.8672ZM53.0469 5.37109V4.97109H52.7467L52.6628 5.25932L53.0469 5.37109ZM56.957 5.37109L57.3377 5.49382L57.5063 4.97109H56.957V5.37109ZM49.9844 27V27.4H50.2757L50.3651 27.1227L49.9844 27ZM45.9375 27L45.5568 27.1227L45.6462 27.4H45.9375V27ZM38.9648 5.77109H42.875V4.97109H38.9648V5.77109ZM42.4909 5.48287L46.1277 17.979L46.8958 17.7554L43.2591 5.25932L42.4909 5.48287ZM46.1244 17.9673C46.9622 21.209 47.4284 23.0009 47.5208 23.3336L48.2917 23.1195C48.2018 22.7959 47.7383 21.0149 46.899 17.7671L46.1244 17.9673ZM47.8092 23.6146L47.9186 23.642L48.1126 22.8658L48.0033 22.8385L47.8092 23.6146ZM48.4027 23.3549C48.8403 21.6773 49.3053 19.8813 49.7976 17.9668L49.0228 17.7676C48.5307 19.6812 48.0659 21.4764 47.6286 23.1529L48.4027 23.3549ZM49.7942 17.979L53.4309 5.48287L52.6628 5.25932L49.0261 17.7554L49.7942 17.979ZM53.0469 5.77109H56.957V4.97109H53.0469V5.77109ZM56.5763 5.24836L49.6037 26.8773L50.3651 27.1227L57.3377 5.49382L56.5763 5.24836ZM49.9844 26.6H45.9375V27.4H49.9844V26.6ZM46.3182 26.8773L39.3455 5.24836L38.5841 5.49382L45.5568 27.1227L46.3182 26.8773ZM59.3906 27H58.9906V27.4H59.3906V27ZM59.3906 5.37109V4.97109H58.9906V5.37109H59.3906ZM63 5.37109H63.4V4.97109H63V5.37109ZM63 27V27.4H63.4V27H63ZM59.7906 27V5.37109H58.9906V27H59.7906ZM59.3906 5.77109H63V4.97109H59.3906V5.77109ZM62.6 5.37109V27H63.4V5.37109H62.6ZM63 26.6H59.3906V27.4H63V26.6ZM67.8125 27H67.4125V27.4H67.8125V27ZM67.8125 5.37109V4.97109H67.4125V5.37109H67.8125ZM82.0039 5.37109H82.4039V4.97109H82.0039V5.37109ZM82.0039 8.46094V8.86094H82.4039V8.46094H82.0039ZM71.4219 8.46094V8.06094H71.0219V8.46094H71.4219ZM71.4219 14.3125H71.0219V14.7125H71.4219V14.3125ZM80.9648 14.3125H81.3648V13.9125H80.9648V14.3125ZM80.9648 17.3477V17.7477H81.3648V17.3477H80.9648ZM71.4219 17.3477V16.9477H71.0219V17.3477H71.4219ZM71.4219 23.9375H71.0219V24.3375H71.4219V23.9375ZM82.2773 23.9375H82.6773V23.5375H82.2773V23.9375ZM82.2773 27V27.4H82.6773V27H82.2773ZM68.2125 27V5.37109H67.4125V27H68.2125ZM67.8125 5.77109H82.0039V4.97109H67.8125V5.77109ZM81.6039 5.37109V8.46094H82.4039V5.37109H81.6039ZM82.0039 8.06094H71.4219V8.86094H82.0039V8.06094ZM71.0219 8.46094V14.3125H71.8219V8.46094H71.0219ZM71.4219 14.7125H80.9648V13.9125H71.4219V14.7125ZM80.5648 14.3125V17.3477H81.3648V14.3125H80.5648ZM80.9648 16.9477H71.4219V17.7477H80.9648V16.9477ZM71.0219 17.3477V23.9375H71.8219V17.3477H71.0219ZM71.4219 24.3375H82.2773V23.5375H71.4219V24.3375ZM81.8773 23.9375V27H82.6773V23.9375H81.8773ZM82.2773 26.6H67.8125V27.4H82.2773V26.6ZM85.5586 27H85.1586V27.4H85.5586V27ZM85.5586 5.37109V4.97109H85.1586V5.37109H85.5586ZM89.332 5.37109L89.6826 5.17848L89.5687 4.97109H89.332V5.37109ZM95.8672 17.2656L95.5166 17.4582L95.5167 17.4584L95.8672 17.2656ZM98.2734 21.6406L97.923 21.8334L98.0369 22.0406H98.2734V21.6406ZM98.4102 21.6406V22.0406H98.8714L98.8061 21.5841L98.4102 21.6406ZM98 5.37109V4.97109H97.6V5.37109H98ZM101.609 5.37109H102.009V4.97109H101.609V5.37109ZM101.609 27V27.4H102.009V27H101.609ZM97.8359 27L97.4869 27.1954L97.6014 27.4H97.8359V27ZM91.3008 15.3242L90.9478 15.5125L90.9517 15.5196L91.3008 15.3242ZM88.8945 10.8125L89.2475 10.6243L89.1345 10.4125H88.8945V10.8125ZM88.7578 10.8125V10.4125H88.3033L88.3611 10.8634L88.7578 10.8125ZM89.168 27V27.4H89.568V27H89.168ZM85.9586 27V5.37109H85.1586V27H85.9586ZM85.5586 5.77109H89.332V4.97109H85.5586V5.77109ZM88.9815 5.56371L95.5166 17.4582L96.2178 17.073L89.6826 5.17848L88.9815 5.56371ZM95.5167 17.4584L97.923 21.8334L98.6239 21.4479L96.2177 17.0729L95.5167 17.4584ZM98.2734 22.0406H98.4102V21.2406H98.2734V22.0406ZM98.8061 21.5841C98.5358 19.6914 98.4 17.6324 98.4 15.4062H97.6C97.6 17.6645 97.7377 19.7617 98.0142 21.6972L98.8061 21.5841ZM98.4 15.4062V5.37109H97.6V15.4062H98.4ZM98 5.77109H101.609V4.97109H98V5.77109ZM101.209 5.37109V27H102.009V5.37109H101.209ZM101.609 26.6H97.8359V27.4H101.609V26.6ZM98.185 26.8046L91.6498 15.1289L90.9517 15.5196L97.4869 27.1954L98.185 26.8046ZM91.6537 15.136L89.2475 10.6243L88.5416 11.0007L90.9478 15.5125L91.6537 15.136ZM88.8945 10.4125H88.7578V11.2125H88.8945V10.4125ZM88.3611 10.8634C88.6325 12.9804 88.768 15.0415 88.768 17.0469H89.568C89.568 15.0054 89.43 12.9103 89.1546 10.7616L88.3611 10.8634ZM88.768 17.0469V27H89.568V17.0469H88.768ZM89.168 26.6H85.5586V27.4H89.168V26.6ZM123.249 27H122.849V27.4H123.249V27ZM123.249 5.37109V4.97109H122.849V5.37109H123.249ZM126.831 5.37109H127.231V4.97109H126.831V5.37109ZM126.831 14.3672H126.431V14.7672H126.831V14.3672ZM135.581 14.3672V14.7672H135.981V14.3672H135.581ZM135.581 5.37109V4.97109H135.181V5.37109H135.581ZM139.163 5.37109H139.563V4.97109H139.163V5.37109ZM139.163 27V27.4H139.563V27H139.163ZM135.581 27H135.181V27.4H135.581V27ZM135.581 17.4023H135.981V17.0023H135.581V17.4023ZM126.831 17.4023V17.0023H126.431V17.4023H126.831ZM126.831 27V27.4H127.231V27H126.831ZM123.649 27V5.37109H122.849V27H123.649ZM123.249 5.77109H126.831V4.97109H123.249V5.77109ZM126.431 5.37109V14.3672H127.231V5.37109H126.431ZM126.831 14.7672H135.581V13.9672H126.831V14.7672ZM135.981 14.3672V5.37109H135.181V14.3672H135.981ZM135.581 5.77109H139.163V4.97109H135.581V5.77109ZM138.763 5.37109V27H139.563V5.37109H138.763ZM139.163 26.6H135.581V27.4H139.163V26.6ZM135.981 27V17.4023H135.181V27H135.981ZM135.581 17.0023H126.831V17.8023H135.581V17.0023ZM126.431 17.4023V27H127.231V17.4023H126.431ZM126.831 26.6H123.249V27.4H126.831V26.6ZM158.741 7.99609L158.43 8.24731L158.433 8.25028L158.741 7.99609ZM145.261 24.4023L144.952 24.6565L145.261 24.4023ZM147.913 22.2148L147.58 22.4367L147.584 22.4415L147.913 22.2148ZM156.062 22.2148L155.732 21.9882L155.73 21.9911L156.062 22.2148ZM156.089 10.2109L155.753 10.4281L155.756 10.4328L156.089 10.2109ZM147.913 10.2109L147.581 9.98812L147.58 9.98906L147.913 10.2109ZM143.118 16.1992C143.118 12.8759 143.948 10.2385 145.571 8.24894L144.951 7.74324C143.183 9.90992 142.318 12.7413 142.318 16.1992H143.118ZM145.571 8.24894C147.186 6.26884 149.321 5.27891 152.015 5.27891V4.47891C149.094 4.47891 146.726 5.5671 144.951 7.74324L145.571 8.24894ZM152.015 5.27891C154.708 5.27891 156.833 6.2687 158.43 8.2473L159.053 7.74489C157.295 5.56724 154.936 4.47891 152.015 4.47891V5.27891ZM158.433 8.25028C160.054 10.2206 160.884 12.8568 160.884 16.1992H161.684C161.684 12.7239 160.819 9.89135 159.05 7.74191L158.433 8.25028ZM160.884 16.1992C160.884 19.5416 160.054 22.1778 158.433 24.1482L159.05 24.6565C160.819 22.5071 161.684 19.6745 161.684 16.1992H160.884ZM158.433 24.1482C156.817 26.111 154.691 27.0922 152.015 27.0922V27.8922C154.917 27.8922 157.275 26.8135 159.05 24.6565L158.433 24.1482ZM152.015 27.0922C149.32 27.0922 147.185 26.1103 145.57 24.1482L144.952 24.6565C146.728 26.8142 149.095 27.8922 152.015 27.8922V27.0922ZM145.57 24.1482C143.948 22.1778 143.118 19.5416 143.118 16.1992H142.318C142.318 19.6745 143.183 22.5071 144.952 24.6565L145.57 24.1482ZM146.037 16.1992C146.037 18.7797 146.537 20.8719 147.58 22.4367L148.246 21.993C147.321 20.6046 146.837 18.6864 146.837 16.1992H146.037ZM147.584 22.4415C148.659 24.0055 150.148 24.8023 152.015 24.8023V24.0023C150.418 24.0023 149.173 23.3409 148.243 21.9882L147.584 22.4415ZM152.015 24.8023C153.866 24.8023 155.337 24.0036 156.393 22.4386L155.73 21.9911C154.818 23.3428 153.591 24.0023 152.015 24.0023V24.8023ZM156.391 22.4415C157.456 20.8929 157.966 18.798 157.966 16.1992H157.166C157.166 18.7046 156.673 20.6201 155.732 21.9882L156.391 22.4415ZM157.966 16.1992C157.966 13.6362 157.465 11.5535 156.422 9.98906L155.756 10.4328C156.682 11.8215 157.166 13.731 157.166 16.1992H157.966ZM156.425 9.99381C155.387 8.38736 153.903 7.56875 152.015 7.56875V8.36875C153.626 8.36875 154.859 9.04493 155.753 10.4281L156.425 9.99381ZM152.015 7.56875C150.144 7.56875 148.654 8.38781 147.581 9.98812L148.245 10.4338C149.177 9.04449 150.423 8.36875 152.015 8.36875V7.56875ZM147.58 9.98906C146.538 11.5535 146.037 13.6362 146.037 16.1992H146.837C146.837 13.731 147.32 11.8215 148.246 10.4328L147.58 9.98906ZM164.757 5.37109V4.97109H164.357V5.37109H164.757ZM168.394 5.37109H168.794V4.97109H168.394V5.37109ZM169.542 23.0625L169.236 23.3198L169.238 23.3228L169.542 23.0625ZM175.995 23.0078L176.304 23.2621L176.306 23.2591L175.995 23.0078ZM177.144 5.37109V4.97109H176.744V5.37109H177.144ZM180.753 5.37109H181.153V4.97109H180.753V5.37109ZM178.73 25.2773L179.025 25.5471L179.027 25.5453L178.73 25.2773ZM165.157 18.9062V5.37109H164.357V18.9062H165.157ZM164.757 5.77109H168.394V4.97109H164.757V5.77109ZM167.994 5.37109V18.9062H168.794V5.37109H167.994ZM167.994 18.9062C167.994 20.8096 168.384 22.3054 169.236 23.3198L169.848 22.8052C169.169 21.9967 168.794 20.7217 168.794 18.9062H167.994ZM169.238 23.3228C170.093 24.3195 171.278 24.8023 172.741 24.8023V24.0023C171.47 24.0023 170.523 23.592 169.846 22.8022L169.238 23.3228ZM172.741 24.8023C174.243 24.8023 175.449 24.2998 176.304 23.2621L175.687 22.7535C175.01 23.5752 174.048 24.0023 172.741 24.0023V24.8023ZM176.306 23.2591C177.151 22.2135 177.544 20.7429 177.544 18.9062H176.744C176.744 20.6425 176.371 21.9063 175.684 22.7565L176.306 23.2591ZM177.544 18.9062V5.37109H176.744V18.9062H177.544ZM177.144 5.77109H180.753V4.97109H177.144V5.77109ZM180.353 5.37109V18.9062H181.153V5.37109H180.353ZM180.353 18.9062C180.353 21.5965 179.694 23.6114 178.433 25.0094L179.027 25.5453C180.463 23.9537 181.153 21.7212 181.153 18.9062H180.353ZM178.434 25.0075C177.184 26.3767 175.31 27.0922 172.741 27.0922V27.8922C175.459 27.8922 177.578 27.1311 179.025 25.5471L178.434 25.0075ZM172.741 27.0922C170.266 27.0922 168.414 26.3961 167.123 25.0547L166.547 25.6093C168.027 27.1481 170.112 27.8922 172.741 27.8922V27.0922ZM167.123 25.0547C165.835 23.7157 165.157 21.6905 165.157 18.9062H164.357C164.357 21.8095 165.064 24.0682 166.547 25.6093L167.123 25.0547ZM183.788 22.3789L183.661 21.9998L183.245 22.1395L183.422 22.5406L183.788 22.3789ZM186.96 21.3125L187.309 21.1171L187.147 20.8276L186.833 20.9334L186.96 21.3125ZM189.175 23.5547L188.968 23.8971L188.973 23.9L189.175 23.5547ZM195.273 23.5273L195.523 23.8397L195.273 23.5273ZM195.191 18.9609L194.958 19.2865L194.962 19.289L195.191 18.9609ZM191.8 17.375L191.929 16.9964L191.926 16.9955L191.8 17.375ZM187.48 15.6797L187.282 16.0272L187.284 16.0285L187.48 15.6797ZM186.659 6.51953L186.414 6.20401L186.659 6.51953ZM196.913 6.19141L196.691 6.52427L196.697 6.52773L196.913 6.19141ZM199.812 9.5L199.938 9.87947L200.357 9.73997L200.177 9.33709L199.812 9.5ZM196.777 10.5117L196.447 10.7385L196.618 10.9863L196.903 10.8912L196.777 10.5117ZM188.355 11.5781L187.965 11.6681L187.967 11.6751L188.355 11.5781ZM190.433 13.5742L190.239 13.9239L190.246 13.9281L190.254 13.932L190.433 13.5742ZM191.308 13.9297L191.171 14.3056L191.308 13.9297ZM192.155 14.2305L192.029 14.6101L192.041 14.6136L192.155 14.2305ZM193.14 14.5586L193.009 14.9368L193.022 14.9409L193.14 14.5586ZM194.097 14.8594L193.97 15.2389L193.973 15.2397L194.097 14.8594ZM198.171 16.9375L197.918 17.2473L197.928 17.2552L198.171 16.9375ZM197.898 25.8242L197.655 25.5061L197.653 25.5076L197.898 25.8242ZM187.07 26.125L186.858 26.4647L186.861 26.4665L187.07 26.125ZM183.916 22.7581L187.088 21.6916L186.833 20.9334L183.661 21.9998L183.916 22.7581ZM186.611 21.5079C187.158 22.4847 187.948 23.2809 188.968 23.8971L189.382 23.2123C188.47 22.6618 187.783 21.9632 187.309 21.1171L186.611 21.5079ZM188.973 23.9C190.003 24.5025 191.14 24.8023 192.374 24.8023V24.0023C191.275 24.0023 190.279 23.7371 189.377 23.2094L188.973 23.9ZM192.374 24.8023C193.642 24.8023 194.704 24.4944 195.523 23.8397L195.023 23.215C194.383 23.727 193.513 24.0023 192.374 24.0023V24.8023ZM195.523 23.8397C196.346 23.1808 196.766 22.3096 196.766 21.2578H195.966C195.966 22.0654 195.658 22.7072 195.023 23.215L195.523 23.8397ZM196.766 21.2578C196.766 20.1474 196.314 19.2572 195.42 18.6329L194.962 19.289C195.635 19.7584 195.966 20.3995 195.966 21.2578H196.766ZM195.423 18.6354C194.612 18.0558 193.44 17.5122 191.929 16.9965L191.671 17.7535C193.15 18.2587 194.238 18.7723 194.958 19.2864L195.423 18.6354ZM191.926 16.9955C189.791 16.2838 188.385 15.7291 187.675 15.3308L187.284 16.0285C188.069 16.4688 189.543 17.0444 191.674 17.7545L191.926 16.9955ZM187.678 15.3322C185.843 14.286 184.954 12.8002 184.954 10.8398H184.154C184.154 13.1087 185.216 14.8494 187.282 16.0272L187.678 15.3322ZM184.954 10.8398C184.954 9.17613 185.599 7.85266 186.905 6.83505L186.414 6.20401C184.912 7.3739 184.154 8.93064 184.154 10.8398H184.954ZM186.905 6.83505C188.222 5.80937 189.96 5.27891 192.155 5.27891V4.47891C189.83 4.47891 187.905 5.04219 186.414 6.20401L186.905 6.83505ZM192.155 5.27891C193.95 5.27891 195.456 5.70039 196.691 6.52423L197.135 5.85859C195.746 4.93242 194.079 4.47891 192.155 4.47891V5.27891ZM196.697 6.52773C197.967 7.34555 198.879 8.39014 199.446 9.66291L200.177 9.33709C199.542 7.91195 198.521 6.75081 197.13 5.85508L196.697 6.52773ZM199.685 9.12053L196.65 10.1322L196.903 10.8912L199.938 9.87947L199.685 9.12053ZM197.106 10.285C195.871 8.48954 194.202 7.56875 192.128 7.56875V8.36875C193.919 8.36875 195.349 9.14328 196.447 10.7385L197.106 10.285ZM192.128 7.56875C190.887 7.56875 189.853 7.84565 189.069 8.44374L189.554 9.0797C190.156 8.62049 191 8.36875 192.128 8.36875V7.56875ZM189.069 8.44374C188.279 9.04653 187.873 9.85587 187.873 10.8398H188.673C188.673 10.1103 188.959 9.53419 189.554 9.0797L189.069 8.44374ZM187.873 10.8398C187.873 11.1238 187.903 11.4002 187.965 11.6681L188.744 11.4882C188.697 11.2821 188.673 11.0663 188.673 10.8398H187.873ZM187.967 11.6751C188.038 11.9591 188.177 12.2209 188.373 12.4603L188.992 11.9537C188.86 11.7921 188.781 11.6347 188.743 11.4811L187.967 11.6751ZM188.373 12.4603C188.539 12.6632 188.688 12.8399 188.819 12.99L189.421 12.4632C189.297 12.3215 189.155 12.1519 188.992 11.9537L188.373 12.4603ZM188.819 12.99C188.991 13.1861 189.246 13.3674 189.553 13.54L189.945 12.8428C189.669 12.6872 189.505 12.5587 189.421 12.4632L188.819 12.99ZM189.553 13.54C189.845 13.7042 190.074 13.8322 190.239 13.9239L190.627 13.2246C190.464 13.1339 190.237 13.0067 189.945 12.8428L189.553 13.54ZM190.254 13.932C190.458 14.034 190.768 14.1589 191.171 14.3056L191.445 13.5538C191.046 13.4088 190.772 13.2967 190.612 13.2164L190.254 13.932ZM191.171 14.3056C191.572 14.4514 191.859 14.5534 192.029 14.6099L192.282 13.851C192.124 13.7982 191.846 13.6996 191.445 13.5538L191.171 14.3056ZM192.041 14.6136C192.214 14.6656 192.535 14.7723 193.009 14.9366L193.271 14.1806C192.797 14.0167 192.462 13.9047 192.27 13.8473L192.041 14.6136ZM193.022 14.9409C193.497 15.0869 193.811 15.1859 193.97 15.2388L194.223 14.4799C194.054 14.4235 193.731 14.3219 193.257 14.1763L193.022 14.9409ZM193.973 15.2397C194.798 15.5087 195.519 15.7939 196.137 16.0942L196.486 15.3746C195.829 15.0551 195.073 14.7569 194.221 14.4791L193.973 15.2397ZM196.137 16.0942C196.744 16.3892 197.338 16.7728 197.918 17.2471L198.424 16.6279C197.801 16.1179 197.155 15.6993 196.486 15.3746L196.137 16.0942ZM197.928 17.2552C198.496 17.6895 198.929 18.2304 199.23 18.8825L199.956 18.5472C199.601 17.7774 199.086 17.1334 198.414 16.6198L197.928 17.2552ZM199.23 18.8825C199.53 19.5339 199.685 20.2776 199.685 21.1211H200.485C200.485 20.1781 200.312 19.3176 199.956 18.5472L199.23 18.8825ZM199.685 21.1211C199.685 23.0346 199.003 24.4784 197.655 25.5061L198.14 26.1423C199.709 24.9461 200.485 23.2545 200.485 21.1211H199.685ZM197.653 25.5076C196.3 26.5527 194.524 27.0922 192.292 27.0922V27.8922C194.654 27.8922 196.615 27.3197 198.142 26.1408L197.653 25.5076ZM192.292 27.0922C190.369 27.0922 188.702 26.6517 187.278 25.7835L186.861 26.4665C188.427 27.4212 190.242 27.8922 192.292 27.8922V27.0922ZM187.281 25.7853C185.852 24.8969 184.813 23.7093 184.154 22.2172L183.422 22.5406C184.149 24.1839 185.297 25.4937 186.858 26.4647L187.281 25.7853ZM203.366 27H202.966V27.4H203.366V27ZM203.366 5.37109V4.97109H202.966V5.37109H203.366ZM217.558 5.37109H217.958V4.97109H217.558V5.37109ZM217.558 8.46094V8.86094H217.958V8.46094H217.558ZM206.976 8.46094V8.06094H206.576V8.46094H206.976ZM206.976 14.3125H206.576V14.7125H206.976V14.3125ZM216.519 14.3125H216.919V13.9125H216.519V14.3125ZM216.519 17.3477V17.7477H216.919V17.3477H216.519ZM206.976 17.3477V16.9477H206.576V17.3477H206.976ZM206.976 23.9375H206.576V24.3375H206.976V23.9375ZM217.831 23.9375H218.231V23.5375H217.831V23.9375ZM217.831 27V27.4H218.231V27H217.831ZM203.766 27V5.37109H202.966V27H203.766ZM203.366 5.77109H217.558V4.97109H203.366V5.77109ZM217.158 5.37109V8.46094H217.958V5.37109H217.158ZM217.558 8.06094H206.976V8.86094H217.558V8.06094ZM206.576 8.46094V14.3125H207.376V8.46094H206.576ZM206.976 14.7125H216.519V13.9125H206.976V14.7125ZM216.119 14.3125V17.3477H216.919V14.3125H216.119ZM216.519 16.9477H206.976V17.7477H216.519V16.9477ZM206.576 17.3477V23.9375H207.376V17.3477H206.576ZM206.976 24.3375H217.831V23.5375H206.976V24.3375ZM217.431 23.9375V27H218.231V23.9375H217.431ZM217.831 26.6H203.366V27.4H217.831V26.6Z" fill="#403F66"/>
</svg>
